<?xml version="1.0" encoding="utf-8"?>
<!-- Generator: Adobe Illustrator 27.6.1, SVG Export Plug-In . SVG Version: 6.00 Build 0)  -->
<svg version="1.1" id="Layer_1" xmlns="http://www.w3.org/2000/svg" xmlns:xlink="http://www.w3.org/1999/xlink" x="0px" y="0px"
	 viewBox="0 0 149 161.6" style="enable-background:new 0 0 149 161.6;" xml:space="preserve">
<style type="text/css">
	.st0{fill:#F1F1F1;}
	.st1{fill:#F1F1F1;stroke:#F1F1F1;stroke-width:2;stroke-miterlimit:10;}
	.st2{fill:none;stroke:#F1F1F1;stroke-width:2;stroke-miterlimit:10;}
	.st3{fill:#263743;stroke:#F1F1F1;stroke-width:2;stroke-miterlimit:10;}
	.st4{enable-background:new    ;}
	.st5{fill:#F1F1F1;stroke:#F1F1F1;stroke-miterlimit:10;}
</style>
<g id="Layer_2_00000053524944509562853250000010976470392928836532_">
	<g id="Layer_1-2">
		<polygon class="st0" points="107.5,132 52,132 54.2,125.8 87.8,125.8 87.8,123.6 52.6,123.6 52.6,123.6 52.6,123.6 43.6,148.9 
			45.7,149.6 51.2,134.2 107.5,134.2 		"/>
		<circle class="st1" cx="87.8" cy="124.7" r="1.9"/>
		<circle class="st1" cx="32.7" cy="124" r="1.9"/>
		<circle class="st2" cx="108.8" cy="133.1" r="1.9"/>
		<circle class="st2" cx="43.3" cy="134.6" r="1.9"/>
		<circle class="st2" cx="72.5" cy="65.9" r="1.9"/>
		<circle class="st2" cx="117.5" cy="85.7" r="1.9"/>
		<circle class="st1" cx="44.6" cy="149.3" r="1.9"/>
		<circle class="st3" cx="102.1" cy="85.6" r="1.9"/>
		<circle class="st1" cx="63.8" cy="63.3" r="1.9"/>
		<circle class="st3" cx="57.6" cy="61.1" r="1.9"/>
		<polygon class="st0" points="42,133.5 29.8,133.5 33,126 31,125.1 21.7,146.8 23.8,147.7 28.9,135.7 42,135.7 		"/>
		<circle class="st2" cx="22.1" cy="148.7" r="1.9"/>
		<g class="st4">
			<path class="st0" d="M61.9,149.5h0.1c0.3,0,0.5,0.1,0.6,0.2c0.1,0.1,0.2,0.3,0.2,0.6c0,0.3-0.1,0.5-0.2,0.6s-0.4,0.2-0.7,0.2
				h-2.1c-0.3,0-0.6-0.1-0.7-0.2s-0.2-0.3-0.2-0.6c0-0.3,0.1-0.5,0.2-0.6s0.4-0.2,0.7-0.2H60l-0.3-0.8h-3.1l-0.3,0.8h0.2
				c0.3,0,0.6,0.1,0.7,0.2s0.2,0.3,0.2,0.6c0,0.3-0.1,0.5-0.2,0.6s-0.4,0.2-0.7,0.2h-1.8c-0.3,0-0.6-0.1-0.7-0.2s-0.2-0.3-0.2-0.6
				c0-0.3,0.1-0.4,0.2-0.6c0.1-0.1,0.3-0.2,0.6-0.2h0.1l1.9-5.4h-0.6c-0.3,0-0.6-0.1-0.7-0.2c-0.1-0.1-0.2-0.3-0.2-0.6
				c0-0.3,0.1-0.5,0.2-0.6c0.1-0.1,0.4-0.2,0.7-0.2h2.7c0.4,0,0.7,0.2,0.9,0.7v0L61.9,149.5z M58.2,144.1l-1,3h2.1L58.2,144.1z"/>
			<path class="st0" d="M66.1,148v1.5h0.7c0.3,0,0.5,0.1,0.7,0.2c0.1,0.1,0.2,0.3,0.2,0.6c0,0.3-0.1,0.5-0.2,0.6s-0.4,0.2-0.7,0.2
				h-2.5c-0.3,0-0.5-0.1-0.7-0.2c-0.1-0.1-0.2-0.3-0.2-0.6c0-0.3,0.1-0.4,0.2-0.6c0.1-0.1,0.3-0.2,0.6-0.2h0.1v-5.4h-0.1
				c-0.2,0-0.4-0.1-0.6-0.2c-0.1-0.1-0.2-0.3-0.2-0.6c0-0.3,0.1-0.5,0.2-0.6c0.1-0.1,0.4-0.2,0.7-0.2h2.9c1.2,0,2,0.2,2.6,0.7
				s0.9,1.1,0.9,2c0,0.9-0.3,1.6-0.9,2.1c-0.6,0.5-1.5,0.7-2.6,0.7H66.1z M66.1,144.1v2.3h1c0.6,0,1-0.1,1.3-0.3
				c0.3-0.2,0.4-0.5,0.4-0.9c0-0.4-0.1-0.6-0.4-0.8c-0.3-0.2-0.7-0.3-1.3-0.3H66.1z"/>
			<path class="st0" d="M74.9,148v1.5h0.7c0.3,0,0.5,0.1,0.7,0.2s0.2,0.3,0.2,0.6c0,0.3-0.1,0.5-0.2,0.6c-0.1,0.1-0.4,0.2-0.7,0.2
				h-2.5c-0.3,0-0.5-0.1-0.7-0.2c-0.1-0.1-0.2-0.3-0.2-0.6c0-0.3,0.1-0.4,0.2-0.6c0.1-0.1,0.3-0.2,0.6-0.2h0.1v-5.4H73
				c-0.2,0-0.4-0.1-0.6-0.2c-0.1-0.1-0.2-0.3-0.2-0.6c0-0.3,0.1-0.5,0.2-0.6c0.1-0.1,0.4-0.2,0.7-0.2h2.9c1.2,0,2,0.2,2.6,0.7
				s0.9,1.1,0.9,2c0,0.9-0.3,1.6-0.9,2.1c-0.6,0.5-1.5,0.7-2.6,0.7H74.9z M74.9,144.1v2.3h1c0.6,0,1-0.1,1.3-0.3
				c0.3-0.2,0.4-0.5,0.4-0.9c0-0.4-0.1-0.6-0.4-0.8c-0.3-0.2-0.7-0.3-1.3-0.3H74.9z"/>
			<path class="st0" d="M86.4,142.7c0.1-0.2,0.2-0.3,0.2-0.3c0.1-0.1,0.2-0.1,0.4-0.1c0.3,0,0.5,0.1,0.5,0.2
				c0.1,0.1,0.1,0.3,0.1,0.6l0,1.4v0.1c0,0.3-0.1,0.5-0.2,0.6c-0.1,0.1-0.3,0.2-0.6,0.2c-0.3,0-0.6-0.2-0.8-0.5c0-0.1,0-0.1-0.1-0.1
				c-0.1-0.3-0.3-0.5-0.6-0.7s-0.5-0.2-0.9-0.2c-0.4,0-0.8,0.1-1,0.3s-0.4,0.5-0.4,0.8c0,0.4,0.6,0.8,1.8,1c0.2,0,0.4,0.1,0.5,0.1
				c0.9,0.2,1.6,0.5,2,0.9c0.4,0.4,0.6,1,0.6,1.7c0,0.9-0.3,1.6-0.9,2c-0.6,0.5-1.4,0.7-2.6,0.7c-0.4,0-0.8,0-1.2-0.1
				s-0.7-0.1-1-0.3c-0.1,0.1-0.2,0.2-0.3,0.3c-0.1,0.1-0.2,0.1-0.4,0.1c-0.3,0-0.5-0.1-0.6-0.2c-0.1-0.1-0.2-0.3-0.2-0.6l0-1.7v-0.1
				c0-0.3,0.1-0.5,0.2-0.7s0.3-0.2,0.6-0.2c0.3,0,0.6,0.2,0.8,0.7c0,0.1,0.1,0.2,0.1,0.3c0.2,0.4,0.4,0.6,0.8,0.8
				c0.3,0.2,0.7,0.3,1.2,0.3c0.4,0,0.8-0.1,1-0.3c0.2-0.2,0.4-0.4,0.4-0.8c0-0.5-0.5-0.9-1.6-1.2c-0.3-0.1-0.6-0.1-0.8-0.2
				c-0.9-0.2-1.6-0.6-1.9-0.9s-0.5-0.9-0.5-1.5c0-0.8,0.3-1.5,0.9-2c0.6-0.5,1.4-0.8,2.4-0.8c0.3,0,0.6,0,1,0.1
				C85.8,142.5,86.1,142.6,86.4,142.7z"/>
			<path class="st0" d="M95.8,146.5c0.5,0.2,0.9,0.5,1.1,0.8c0.2,0.3,0.4,0.8,0.4,1.3c0,0.4-0.1,0.8-0.3,1.2
				c-0.2,0.4-0.5,0.7-0.9,0.9c-0.2,0.1-0.5,0.2-0.8,0.3c-0.3,0.1-0.7,0.1-1.2,0.1h-0.6h-3.1c-0.3,0-0.5-0.1-0.7-0.2
				s-0.2-0.3-0.2-0.6c0-0.3,0.1-0.4,0.2-0.6c0.1-0.1,0.3-0.2,0.6-0.2h0.1v-5.4h-0.1c-0.2,0-0.4-0.1-0.6-0.2
				c-0.1-0.1-0.2-0.3-0.2-0.6c0-0.3,0.1-0.5,0.2-0.6c0.1-0.1,0.4-0.2,0.7-0.2h3.3c1,0,1.8,0.2,2.3,0.6s0.8,1,0.8,1.7
				c0,0.4-0.1,0.7-0.2,1C96.3,146.1,96.1,146.4,95.8,146.5z M92.1,144.1v1.8h1c0.6,0,1-0.1,1.2-0.2c0.2-0.1,0.4-0.4,0.4-0.7
				c0-0.3-0.1-0.5-0.3-0.7c-0.2-0.1-0.6-0.2-1.1-0.2H92.1z M92.1,147.3v2.2h1.1c0.8,0,1.3-0.1,1.6-0.3c0.3-0.2,0.5-0.4,0.5-0.8
				c0-0.4-0.1-0.7-0.4-0.8c-0.3-0.2-0.8-0.3-1.5-0.3H92.1z"/>
			<path class="st0" d="M104.2,144.1h-3.3v1.8h1.3v-0.1c0-0.3,0.1-0.5,0.2-0.6s0.3-0.2,0.5-0.2c0.2,0,0.4,0.1,0.5,0.2
				c0.1,0.1,0.2,0.3,0.2,0.5c0,0,0,0,0,0.1c0,0.1,0,0.1,0,0.2v1.5c0,0.3-0.1,0.6-0.2,0.7s-0.3,0.2-0.6,0.2c-0.2,0-0.4-0.1-0.5-0.2
				s-0.2-0.3-0.2-0.6v-0.1h-1.3v2.2h3.3v-0.9c0-0.3,0.1-0.6,0.2-0.7c0.1-0.1,0.3-0.2,0.6-0.2c0.3,0,0.5,0.1,0.6,0.2
				c0.1,0.1,0.2,0.4,0.2,0.7v1.7c0,0.3,0,0.4-0.1,0.5c-0.1,0.1-0.3,0.1-0.6,0.1h-5.8c-0.3,0-0.5-0.1-0.7-0.2
				c-0.1-0.1-0.2-0.3-0.2-0.6c0-0.3,0.1-0.4,0.2-0.6c0.1-0.1,0.3-0.2,0.6-0.2h0.1v-5.4H99c-0.2,0-0.4-0.1-0.6-0.2
				c-0.1-0.1-0.2-0.3-0.2-0.6c0-0.3,0.1-0.5,0.2-0.6c0.1-0.1,0.4-0.2,0.7-0.2h5.8c0.3,0,0.5,0,0.6,0.1c0.1,0.1,0.2,0.3,0.2,0.5v1.6
				c0,0.3-0.1,0.6-0.2,0.7c-0.1,0.1-0.3,0.2-0.6,0.2c-0.3,0-0.5-0.1-0.6-0.2s-0.2-0.4-0.2-0.7V144.1z"/>
			<path class="st0" d="M112.6,148.1v-4h-0.4c-0.3,0-0.5-0.1-0.7-0.2c-0.1-0.1-0.2-0.3-0.2-0.6s0.1-0.5,0.2-0.6
				c0.1-0.1,0.4-0.2,0.7-0.2h2c0.3,0,0.5,0.1,0.7,0.2c0.1,0.1,0.2,0.3,0.2,0.6c0,0.3-0.1,0.5-0.2,0.6s-0.3,0.2-0.6,0.2h-0.1v6.5
				c0,0.2,0,0.4-0.1,0.4c0,0.1-0.2,0.1-0.3,0.1h-0.7c-0.2,0-0.4,0-0.5-0.1c-0.1,0-0.2-0.1-0.2-0.3l-3-5.3v3.9h0.4
				c0.3,0,0.5,0.1,0.7,0.2c0.1,0.1,0.2,0.3,0.2,0.6c0,0.3-0.1,0.5-0.2,0.6c-0.1,0.1-0.4,0.2-0.7,0.2h-2c-0.3,0-0.5-0.1-0.7-0.2
				c-0.1-0.1-0.2-0.3-0.2-0.6c0-0.3,0.1-0.4,0.2-0.6c0.1-0.1,0.3-0.2,0.6-0.2h0.1v-5.4h-0.1c-0.2,0-0.4-0.1-0.6-0.2
				c-0.1-0.1-0.2-0.3-0.2-0.6c0-0.3,0.1-0.5,0.2-0.6c0.1-0.1,0.4-0.2,0.7-0.2h1.2c0.3,0,0.5,0,0.6,0.1s0.2,0.2,0.3,0.4L112.6,148.1z
				"/>
			<path class="st0" d="M116.7,149.5v-5.4h-0.1c-0.3,0-0.5-0.1-0.6-0.2c-0.1-0.1-0.2-0.3-0.2-0.6c0-0.3,0.1-0.5,0.2-0.6
				c0.1-0.1,0.4-0.2,0.7-0.2h1.3h0.4c1,0,1.7,0,2.2,0.1s0.9,0.2,1.2,0.4c0.6,0.3,1,0.8,1.3,1.5s0.5,1.4,0.5,2.2
				c0,0.9-0.2,1.7-0.5,2.3s-0.8,1.2-1.5,1.5c-0.3,0.2-0.6,0.3-1,0.3s-1,0.1-1.7,0.1H118h-1.3c-0.3,0-0.6-0.1-0.7-0.2
				s-0.2-0.3-0.2-0.6c0-0.3,0.1-0.4,0.2-0.6c0.1-0.1,0.3-0.2,0.6-0.2H116.7z M118.5,144.1v5.4h0.4c0.9,0,1.6-0.2,2-0.7
				c0.4-0.4,0.6-1.1,0.6-2c0-0.9-0.2-1.6-0.7-2c-0.4-0.4-1.1-0.7-2-0.7c-0.1,0-0.2,0-0.3,0C118.6,144.1,118.6,144.1,118.5,144.1z"/>
			<path class="st0" d="M130.5,144.1h-3.3v1.8h1.3v-0.1c0-0.3,0.1-0.5,0.2-0.6s0.3-0.2,0.5-0.2c0.2,0,0.4,0.1,0.5,0.2
				c0.1,0.1,0.2,0.3,0.2,0.5c0,0,0,0,0,0.1c0,0.1,0,0.1,0,0.2v1.5c0,0.3-0.1,0.6-0.2,0.7s-0.3,0.2-0.6,0.2c-0.2,0-0.4-0.1-0.5-0.2
				s-0.2-0.3-0.2-0.6v-0.1h-1.3v2.2h3.3v-0.9c0-0.3,0.1-0.6,0.2-0.7c0.1-0.1,0.3-0.2,0.6-0.2c0.3,0,0.5,0.1,0.6,0.2
				c0.1,0.1,0.2,0.4,0.2,0.7v1.7c0,0.3,0,0.4-0.1,0.5c-0.1,0.1-0.3,0.1-0.6,0.1h-5.8c-0.3,0-0.5-0.1-0.7-0.2
				c-0.1-0.1-0.2-0.3-0.2-0.6c0-0.3,0.1-0.4,0.2-0.6c0.1-0.1,0.3-0.2,0.6-0.2h0.1v-5.4h-0.1c-0.2,0-0.4-0.1-0.6-0.2
				c-0.1-0.1-0.2-0.3-0.2-0.6c0-0.3,0.1-0.5,0.2-0.6c0.1-0.1,0.4-0.2,0.7-0.2h5.8c0.3,0,0.5,0,0.6,0.1c0.1,0.1,0.2,0.3,0.2,0.5v1.6
				c0,0.3-0.1,0.6-0.2,0.7c-0.1,0.1-0.3,0.2-0.6,0.2c-0.3,0-0.5-0.1-0.6-0.2s-0.2-0.4-0.2-0.7V144.1z"/>
			<path class="st0" d="M139,147.2c0.1,0.1,0.2,0.2,0.4,0.4c0,0,0,0.1,0.1,0.1l1.2,1.9h0.1h0.1c0.3,0,0.5,0.1,0.6,0.2
				s0.2,0.3,0.2,0.6c0,0.3-0.1,0.5-0.2,0.6s-0.4,0.2-0.7,0.2h-0.9c-0.3,0-0.6-0.1-0.8-0.4l0,0l-1.7-2.7c-0.1-0.1-0.1-0.2-0.2-0.2
				c-0.1-0.1-0.2-0.1-0.3-0.1h-0.7v1.9h0.1c0.3,0,0.5,0.1,0.6,0.2c0.1,0.1,0.2,0.3,0.2,0.6c0,0.3-0.1,0.5-0.2,0.6
				c-0.1,0.1-0.4,0.2-0.7,0.2h-1.8c-0.3,0-0.5-0.1-0.7-0.2c-0.1-0.1-0.2-0.3-0.2-0.6c0-0.3,0.1-0.4,0.2-0.6c0.1-0.1,0.3-0.2,0.6-0.2
				h0.1v-5.4h-0.1c-0.2,0-0.4-0.1-0.6-0.2c-0.1-0.1-0.2-0.3-0.2-0.6c0-0.3,0.1-0.5,0.2-0.6c0.1-0.1,0.4-0.2,0.7-0.2h3.3
				c1,0,1.8,0.2,2.3,0.6s0.8,1,0.8,1.8c0,0.5-0.1,1-0.4,1.4C139.9,146.7,139.5,147,139,147.2z M136.1,144.1v2h1c0.6,0,1-0.1,1.2-0.2
				s0.4-0.4,0.4-0.8c0-0.4-0.1-0.6-0.3-0.8c-0.2-0.2-0.6-0.2-1-0.2H136.1z"/>
		</g>
		<path class="st5" d="M48.7,76.4c0.4-0.7,0.8-1.4,1.2-2.2c0.2-0.3,0.3-0.7,0.3-1.1c-0.2-2.6,1.5-5.9,4.2-6.7c1.9-0.7,4-0.1,5.2,1.4
			c0.8,0.9,1.4,1.9,1.8,3.1c0,0.1,0,0.4,0,0.4c-2.3,1.7-3.6,4.2-4.8,6.7c-0.2,0.5-0.4,0.9-0.7,1.4c-1,1.9-3.3,2.7-5.2,1.7
			c-0.2-0.1-0.3-0.2-0.4-0.3c-1.2-0.9-1.8-2.4-1.6-3.9C48.7,76.7,48.8,76.6,48.7,76.4L48.7,76.4z"/>
		<path class="st5" d="M58.1,31.6c-2.8-1.9-6.1-2.8-9.5-2.4c-2.8,0.2-5.4,1.7-6.9,4.1c-0.7,1.1-1.6,2.1-2.5,2.9
			c-1.2,1-2.9,0.9-4-0.3c-0.3-0.4-0.5-0.8-0.6-1.3c-0.3-1.6-0.9-3.1-1.7-4.5c-0.2-0.3-0.5-0.6-0.7-0.9c-1.3-1.7-0.8-3.1,0.6-4.2
			c1-0.8,2.1-1.5,3.3-2c1.9-0.8,3.9-1.3,5.9-1.3c2.9,0,5.8,0.9,8.3,2.3c2.7,1.5,5,3.5,6.8,6C57.3,30.7,57.7,31.1,58.1,31.6z"/>
		<path class="st5" d="M67.7,70.2c0.2,0.8,0.8,1.4,1.5,1.5c1.5,0.3,3.1,0.6,4.7,0.8c1.2,0.1,2.4,0.5,3.4,1.2
			c1.1,0.9,1.3,2.4,0.6,3.6c-0.6,1.1-1.6,2.1-2.7,2.8c-2.2,1.6-4.1,3.4-5.8,5.4c-1.4,1.7-2.5,3.7-3,5.9c0.9,0.3,1.7,0.7,2.6,1.1
			c1.4,0.8,1.8,3.9,0.4,5.6c-0.8,1-0.7,1.4,0.2,2.2c1.1-0.8,2.2-1.7,3.3-2.4c1.1-0.8,2.6-0.7,3.6,0.2c1.5,1.3,3.2,2.4,5.1,3.2
			c1.8,0.8,2.6,2.5,3.4,4.2c0.4,1.2,1.1,2.4,2.1,3.2c0.9,0.7,2.1,0,1.7-1.6c2.7-5.7,7.8-9.9,13.8-11.6c2-0.7,4.1-0.8,6.2-0.4
			c1.7,0.5,3.2,1.5,4.2,3c1.5,2.1,3,4.3,4.5,6.4c1.4,2.2,3.4,3.8,5.9,4.6c0.1,0.1,0.3,0.1,0.4,0.2c-4.6,0.9-9.5,0.2-13.7-2
			c0.1,0.2,0.3,0.4,0.4,0.7c2.4,2.6,5.7,4.1,9.2,4.3c2.7,0.1,5.4-0.3,8-1.1c3.1-0.8,6-2,8.8-3.7s5.3-3.8,7.4-6.3
			c2.1-2.6,3.6-5.6,4.5-8.7c0-0.1,0-0.2,0.1-0.3h0.2c-0.4,2.1-0.7,4.2-1.2,6.2c-0.8,3.6-2.2,6.9-4.1,10c-1.3,2.1-2.8,4-4.4,5.8
			c-2.1,2.3-4.6,4.3-7.3,5.8c-3.1,1.8-6.5,3.1-10,3.8c-1.5,0.4-3,0.6-4.6,0.7c-2.2,0.2-4.5,0-6.7-0.4c-1.7-0.4-3.4-0.6-5.1-1.1
			c-2.9-0.8-5.7-2-8.3-3.6c-2.9-1.7-5.4-4.1-7.1-7.1c-0.4-2-2.4-1.7-3.5-0.8c-1.2,1-1.8,2.5-1.6,4c0,0.4,0,0.9,0,1.3
			c-0.1,0.4-0.2,1.1-0.5,1.2c-0.5,0.1-1,0.1-1.5-0.1c-0.5-0.3-0.9-0.6-1.3-1c-2.2-1.7-4.5-3.1-7-4.3c-1.5-0.8-3-1.5-4.5-2.4
			c-1.8-1.1-3.1-3-3.3-5.1c-0.1-1,0.2-2,0.8-2.8c0.6-0.8-0.3-1.3-0.5-1.8c0-0.1-0.7-0.1-1,0.1c-1.6,0.8-3.4,0.9-5.1,0.5
			c-1.6-0.4-2.8-1.7-3-3.3c-0.3-1.6,0.6-2.8,1.7-3.8c0.9-0.7,1.8-1.3,2.7-1.8c0.9-0.6,1-1.1,0.2-1.8s-2.1-1.4-3.2-2.1
			c-1.2-0.7-2.1-1.7-2.7-2.9c-0.6-1.4-0.4-3,0.5-4.2c1.2-1.4,2.6-2.5,4.2-3.3c2.8-1.6,4.4-4.6,4.2-7.8"/>
		<path class="st5" d="M142.1,94.8c-1.7-0.1-3.5-0.1-5.2,0c-5.9,0.4-11.5,3-15.6,7.3c-0.8,1.8-1.7,2.2-2.7,1.2c-1-1.2-2-2.5-2.9-3.8
			c-0.2-0.2-0.3-0.4-0.4-0.6c-0.8-1.2-1.5-2.4-2.1-3.8c-0.3-0.7,0-1.6,0.7-2c2-1.5,4.2-2.4,6.6-2.9c1.4-0.3,2.8-0.5,4.2-0.7
			c1.7,0,3.3,0,5,0.3c2.5,0.3,5,1,7.3,2.1c1.7,0.8,3.3,1.8,5,2.7C142.1,94.6,142.1,94.7,142.1,94.8z"/>
		<path class="st5" d="M45.8,71.8c-0.2,1.4-0.4,2.9-0.6,4.3c-0.4,2.1-1.6,3.9-3.4,5c-1.4,1-3.1,1.5-4.8,1.5c-1.6,0-2.7-0.2-3.1-1.7
			c-0.1-0.6-0.1-1.2,0.1-1.8c0.5-1.4,0.7-3,0.4-4.5c-0.2-1.3,0.2-2.6,1-3.6c1.1-1.6,2.5-3,4.1-4c1-0.7,2.2-1,3.4-0.8
			c2,0.4,3.7,2.5,3,4.6C45.9,71.1,45.8,71.4,45.8,71.8L45.8,71.8z"/>
		<path class="st5" d="M24,81.5c-1.3-0.1-2.6-0.7-3.5-1.8c-1.1-1.3-1.3-3.2-0.6-4.7c0.7-1.6,1.5-3.1,2.5-4.6c0.6-0.8,1.2-1.4,2-2
			c1.7-1.4,3.4-0.9,4.9,0.3c1,0.8,1.8,1.8,2.7,2.6c0.5,0.5,0.7,1.2,0.5,1.9C32.2,74.4,32,75.7,32,77c0,1.9-1.1,3.5-2.8,4.2
			C27.5,81.9,25.7,82,24,81.5z"/>
		<path class="st5" d="M0.6,55c0.4-1,0.9-1.9,1.5-2.8c0.6-0.7,1.5-1,2.4-0.8c1,0.1,2.1,0.2,3.1,0.2s1.9,0.6,2.3,1.5
			c0.3,0.9,0.4,1.9,0.5,2.8c0.1,1.4,0.5,2.7,1.3,3.9c0.8,1.1,0.6,1.8-0.5,2.6S9.1,64,8,64.7c-2,1.4-3.5,0.8-5-0.8
			c-1.7-2-2.5-4.6-2.3-7.2c0-0.5,0-1.1,0.1-1.6L0.6,55z"/>
		<path class="st5" d="M13.3,75.7c-2.7-0.6-4.9-2.8-5.3-5.6c-0.1-1.7,0.6-3.3,1.8-4.4c0.9-1.2,2.2-2.2,3.7-2.7
			c1.1-0.5,2.4-0.1,3.1,0.9c1,1.6,2.4,2.9,4,3.9c0.9,0.5,1.1,1.6,0.6,2.5l0,0c-0.7,1.2-1.3,2.5-2,3.8s-2,1.5-3.2,1.7
			C15,75.8,14.1,75.7,13.3,75.7z"/>
		<path class="st5" d="M7.4,50.1c-0.8-0.2-1.7-0.4-2.5-0.7c-1.9-0.8-2.7-2.9-2-4.7c0.7-2.1,2.1-3.8,4-5c1.4-0.8,3.3-1,4.2-0.1
			c1,0.9,1.9,1.9,2.7,2.9c0.7,1.1,0.4,2.5-0.6,3.3c-1.2,0.9-2,2.3-2.3,3.8c-0.1,0.8-0.8,0.9-1.4,0.8c-0.7-0.1-1.3-0.2-2-0.4
			L7.4,50.1z"/>
		<path class="st5" d="M17.2,33.4c1.7,0,3,1.4,3.1,3c0.1,0.8,0.4,1.7,0.6,2.5s-0.3,1.6-1.1,1.7c-0.1,0-0.2,0-0.2,0
			c-1.1-0.1-2.2,0.4-2.9,1.3c-0.3,0.2-0.8,0.2-1.1,0c-1.1-1.1-2.1-2.2-3.1-3.5c-1-1.4-0.6-3.4,0.8-4.3c0.1-0.1,0.2-0.1,0.2-0.2
			C14.7,33.4,16,33.1,17.2,33.4z"/>
		<path class="st5" d="M24,37.3c-1.1,0.2-2.1-0.5-2.3-1.6c-0.3-0.7,0-1.6,0.6-2.1c1.2-1.2,2.7-2.1,4.3-2.6c1-0.4,1.9-0.7,2.9-0.9
			c1.4-0.3,1.9,0.1,2,1.5c0.1,0.5,0.3,1,0.6,1.4c0.9,1.3,0.6,1.7-0.5,2.3c-1.9,1-4,1.5-6.1,1.6L24,37.3z"/>
		<path class="st5" d="M47.7,94L42,88.4v-0.1c0.2,0.1,0.4,0.1,0.6,0.2l12.6,6.7c0.2,0.1,0.4,0.3,0.6,0.2c0.6,0,1.1-0.1,1.6-0.3
			c0.2-0.1,0-0.9-0.2-1.4c-0.4-1.3-1.4-2.3-2.7-2.7c-4.5-1.6-8.9-3.2-13.3-5c-2.8-1.2-5.6-2.7-8.4-4c-0.4-0.2-0.8-0.5-1.1-0.1
			c-0.2,0.4-0.2,0.8-0.1,1.1c0.1,0.7,0.3,1.4,0.5,2.2c0.1,0.6,0.7,1,1.3,1c0.8,0,1.5,0.2,2.2,0.6c2.1,1.3,4.2,2.8,6.2,4.2
			c1.7,1.3,3.5,2.3,5.6,3L47.7,94L47.7,94z"/>
		<path class="st5" d="M18.7,98.4c0.4-0.4,0.7-0.6,0.9-0.9c2.8-3.1,5.9-5.9,9.4-8.2c0.4-0.3,0.8-0.5,1.2-0.8c0.7-0.5,1-1.3,0.8-2.1
			c-0.2-1-0.6-2.1-1-3.1c-0.4-0.8-1-0.9-1.4-0.2c-2.7,4.1-6.4,7.1-10.1,10c-0.9,0.7-1.8,1.3-2.6,2c-0.3,0.3-0.5,0.6-0.6,1
			c0,0.5,0.5,0.6,0.9,0.7c0.6,0.3,1.2,0.6,1.7,1C18.1,98.1,18.4,98.2,18.7,98.4z"/>
		<path class="st5" d="M21.5,112.8l-0.8-1.6c-1.9-3.6-3.1-7.6-3.6-11.6c0-0.7-0.5-1.4-1.2-1.6c-0.8-0.2-1,0-1.1,0.8
			c-0.1,2.2,0.3,4.3,1.1,6.3c1.3,2.9,3.2,5.6,5.5,7.9L21.5,112.8z"/>
		<path class="st5" d="M32.2,108.3c0.3-0.3,0.6-0.5,0.8-0.8c2.5-2.6,5.2-4.9,8.2-6.9c0.3-0.2,0.7-0.4,1.1-0.7
			c0.6-0.4,0.8-1.1,0.7-1.8c-0.2-0.9-0.5-1.7-0.8-2.5c-0.3-0.7-0.8-0.7-1.2-0.1c-2.4,3.4-5.7,5.9-9,8.4c-0.8,0.6-1.5,1.1-2.3,1.7
			c-0.3,0.2-0.5,0.5-0.5,0.9s0.5,0.4,0.8,0.6c0.5,0.2,1,0.5,1.5,0.8C31.6,108.1,31.9,108.2,32.2,108.3z"/>
		<path class="st5" d="M34.3,120.1l-0.7-1.3c-1.6-2.9-2.6-6.1-3-9.5c0-0.6-0.4-1.1-1-1.3c-0.6-0.2-0.9,0-1,0.7
			c-0.1,1.8,0.2,3.5,0.9,5.1c1.1,2.4,2.7,4.5,4.6,6.3L34.3,120.1z"/>
		<path class="st5" d="M43.7,110.3c0.3-0.3,0.5-0.4,0.7-0.7c2.2-2.3,4.6-4.4,7.2-6.1c0.3-0.2,0.7-0.4,0.9-0.6c0.5-0.3,0.7-1,0.6-1.6
			c-0.2-0.8-0.4-1.5-0.7-2.2c-0.3-0.6-0.7-0.6-1.1-0.1c-2.2,2.9-4.9,5.4-7.9,7.4c-0.7,0.5-1.4,1-2,1.5c-0.2,0.2-0.4,0.5-0.5,0.8
			c0,0.4,0.4,0.4,0.7,0.5c0.4,0.2,0.8,0.5,1.2,0.7C43.2,110.1,43.5,110.2,43.7,110.3z"/>
		<path class="st5" d="M45.6,120.7c-0.2-0.4-0.4-0.8-0.6-1.2c-1.4-2.6-2.3-5.4-2.6-8.4c0-0.5-0.4-1-0.9-1.2c-0.6-0.2-0.8,0-0.8,0.6
			c-0.1,1.6,0.2,3.1,0.8,4.5C42.5,117.1,43.9,119,45.6,120.7L45.6,120.7z"/>
		<path class="st5" d="M72.4,92.8c0,0,7.6-12,12.6-12.7s11.8,7.2,11.8,7.2s1.9,2.9-2.8,6.3c-2.7,1.9-5,4.3-6.8,7.1
			C87.2,100.6,78.5,91.8,72.4,92.8z"/>
		<polygon class="st5" points="82.8,1.3 63.3,46.6 56.4,62 57.7,62.6 64.7,47.2 65.5,45.4 68.3,51 63.1,63.1 64.5,63.7 70,51 70,51 
			66.2,43.6 82.8,5.1 116.2,84.7 117.6,84.1 		"/>
		<polygon class="st5" points="82.4,36.5 72.3,64.2 73.7,64.7 82.5,40.7 96.8,75.2 101.4,86.3 102.8,85.7 98.2,74.6 		"/>
	</g>
</g>
</svg>
